<!-- Generated by IcoMoon.io -->
<svg version="1.1" xmlns="http://www.w3.org/2000/svg" width="32" height="32" viewBox="0 0 32 32">
<title>error</title>
<path fill="#fafafb" d="M9.080 0.292c0.187-0.187 0.441-0.292 0.706-0.292h12.428c0.265 0 0.519 0.105 0.706 0.292l8.788 8.788c0.187 0.187 0.292 0.441 0.292 0.706v12.428c0 0.265-0.105 0.519-0.292 0.706l-8.788 8.788c-0.187 0.187-0.441 0.292-0.706 0.292h-12.428c-0.265 0-0.519-0.105-0.706-0.292l-8.788-8.788c-0.187-0.187-0.292-0.441-0.292-0.706v-12.428c0-0.265 0.105-0.519 0.292-0.706l8.788-8.788zM10.2 2l-8.2 8.2v11.6l8.2 8.2h11.6l8.2-8.2v-11.6l-8.2-8.2h-11.6z"></path>
<path fill="#fafafb" d="M9.292 9.292c0.093-0.093 0.203-0.167 0.325-0.217s0.252-0.076 0.383-0.076c0.132 0 0.262 0.026 0.383 0.076s0.232 0.124 0.325 0.217l5.292 5.294 5.292-5.294c0.093-0.093 0.203-0.167 0.325-0.217s0.252-0.076 0.383-0.076c0.131 0 0.262 0.026 0.383 0.076s0.232 0.124 0.325 0.217c0.093 0.093 0.167 0.203 0.217 0.325s0.076 0.252 0.076 0.383-0.026 0.262-0.076 0.383c-0.050 0.121-0.124 0.232-0.217 0.325l-5.294 5.292 5.294 5.292c0.093 0.093 0.167 0.203 0.217 0.325s0.076 0.252 0.076 0.383-0.026 0.262-0.076 0.383c-0.050 0.121-0.124 0.232-0.217 0.325s-0.203 0.167-0.325 0.217c-0.121 0.050-0.252 0.076-0.383 0.076s-0.262-0.026-0.383-0.076c-0.121-0.050-0.232-0.124-0.325-0.217l-5.292-5.294-5.292 5.294c-0.093 0.093-0.203 0.167-0.325 0.217s-0.252 0.076-0.383 0.076-0.262-0.026-0.383-0.076c-0.121-0.050-0.232-0.124-0.325-0.217s-0.167-0.203-0.217-0.325c-0.050-0.121-0.076-0.252-0.076-0.383s0.026-0.262 0.076-0.383c0.050-0.121 0.124-0.232 0.217-0.325l5.294-5.292-5.294-5.292c-0.093-0.093-0.167-0.203-0.217-0.325s-0.076-0.252-0.076-0.383c0-0.132 0.026-0.262 0.076-0.383s0.124-0.232 0.217-0.325z"></path>
</svg>
