<svg width="24" height="24" viewBox="0 0 24 24" fill="none" xmlns="http://www.w3.org/2000/svg">
<g clip-path="url(#clip0_602_101)">
<path d="M12 24.0001C12.7956 24.0001 13.5587 23.684 14.1213 23.1214C14.6839 22.5588 15 21.7957 15 21.0001H9C9 21.7957 9.31607 22.5588 9.87868 23.1214C10.4413 23.684 11.2044 24.0001 12 24.0001ZM12 2.87709L10.8045 3.11859C9.44844 3.39489 8.2295 4.13125 7.35398 5.20302C6.47846 6.2748 6.00015 7.61617 6 9.00009C6 9.94209 5.799 12.2956 5.3115 14.6131C5.0715 15.7636 4.7475 16.9621 4.317 18.0001H19.683C19.2525 16.9621 18.93 15.7651 18.6885 14.6131C18.201 12.2956 18 9.94209 18 9.00009C17.9995 7.61643 17.521 6.27541 16.6455 5.20394C15.7701 4.13247 14.5513 3.39634 13.1955 3.12009L12 2.87709ZM21.33 18.0001C21.6645 18.6706 22.0515 19.2016 22.5 19.5001H1.5C1.9485 19.2016 2.3355 18.6706 2.67 18.0001C4.02 15.3001 4.5 10.3201 4.5 9.00009C4.5 5.37009 7.08 2.34009 10.5075 1.64859C10.4866 1.44002 10.5096 1.22938 10.5751 1.03025C10.6405 0.831122 10.747 0.647926 10.8876 0.492479C11.0283 0.337031 11.1999 0.212784 11.3915 0.127749C11.5831 0.0427135 11.7904 -0.0012207 12 -0.0012207C12.2096 -0.0012207 12.4169 0.0427135 12.6085 0.127749C12.8001 0.212784 12.9717 0.337031 13.1124 0.492479C13.253 0.647926 13.3595 0.831122 13.4249 1.03025C13.4904 1.22938 13.5134 1.44002 13.4925 1.64859C15.1879 1.99344 16.7121 2.91363 17.8069 4.25334C18.9016 5.59305 19.4998 7.26995 19.5 9.00009C19.5 10.3201 19.98 15.3001 21.33 18.0001Z" fill="white"/>
</g>
<defs>
<clipPath id="clip0_602_101">
<rect width="24" height="24" fill="white"/>
</clipPath>
</defs>
</svg>
