<!-- Generated by IcoMoon.io -->
<svg version="1.1" xmlns="http://www.w3.org/2000/svg" width="35" height="32" viewBox="0 0 35 32">
<title>ok</title>
<path fill="#fff" d="M2.8 16c-0-2.317 0.609-4.594 1.768-6.601s2.825-3.674 4.831-4.832c2.007-1.159 4.283-1.769 6.6-1.769s4.594 0.61 6.601 1.768c0.276 0.157 0.602 0.198 0.908 0.115s0.566-0.284 0.725-0.558c0.158-0.274 0.202-0.6 0.121-0.907s-0.28-0.568-0.553-0.728c-2.974-1.717-6.431-2.405-9.836-1.957s-6.566 2.007-8.995 4.435-3.988 5.59-4.436 8.994c-0.448 3.405 0.239 6.862 1.956 9.836s4.367 5.298 7.539 6.613 6.69 1.545 10.007 0.657c3.317-0.888 6.248-2.847 8.339-5.571s3.224-6.062 3.225-9.496c0-0.318-0.126-0.623-0.352-0.848s-0.53-0.351-0.848-0.351-0.624 0.126-0.848 0.351c-0.225 0.225-0.352 0.53-0.352 0.848 0 3.501-1.391 6.858-3.866 9.334s-5.833 3.866-9.334 3.866c-3.501 0-6.858-1.391-9.334-3.866s-3.866-5.833-3.866-9.334z"></path>
<path fill="#fff" d="M33.65 4.85c0.112-0.112 0.2-0.244 0.26-0.39s0.091-0.302 0.091-0.46-0.031-0.314-0.091-0.46c-0.060-0.146-0.149-0.278-0.26-0.39s-0.244-0.2-0.39-0.26c-0.146-0.060-0.302-0.091-0.46-0.091s-0.314 0.031-0.46 0.091c-0.146 0.060-0.278 0.149-0.39 0.26l-15.95 15.953-6.35-6.353c-0.112-0.112-0.244-0.2-0.39-0.26s-0.302-0.091-0.46-0.091c-0.158 0-0.314 0.031-0.46 0.091s-0.278 0.149-0.39 0.26c-0.112 0.112-0.2 0.244-0.26 0.39s-0.091 0.302-0.091 0.46c0 0.158 0.031 0.314 0.091 0.46s0.149 0.278 0.26 0.39l7.2 7.2c0.111 0.112 0.244 0.2 0.39 0.261s0.302 0.092 0.46 0.092c0.158 0 0.314-0.031 0.46-0.092s0.278-0.149 0.39-0.261l16.8-16.8z"></path>
</svg>
