<!-- Generated by IcoMoon.io -->
<svg version="1.1" xmlns="http://www.w3.org/2000/svg" width="35" height="32" viewBox="0 0 35 32">
<title>caution</title>
<path fill="#fff" d="M17.319 2.944c0.043-0.023 0.091-0.035 0.14-0.035s0.095 0.012 0.137 0.035c0.050 0.030 0.091 0.073 0.118 0.124l14.961 25.455c0.079 0.131 0.076 0.271 0.004 0.399-0.028 0.053-0.068 0.098-0.118 0.131-0.043 0.026-0.093 0.039-0.144 0.037h-29.917c-0.051 0.002-0.101-0.010-0.144-0.037-0.050-0.033-0.090-0.078-0.118-0.131-0.036-0.061-0.055-0.13-0.054-0.2s0.021-0.139 0.058-0.199l14.958-25.455c0.027-0.051 0.068-0.094 0.118-0.124zM19.597 1.962c-0.216-0.376-0.527-0.689-0.903-0.906s-0.802-0.332-1.236-0.332c-0.434 0-0.86 0.114-1.235 0.332s-0.687 0.53-0.903 0.906l-14.961 25.455c-0.997 1.697 0.199 3.855 2.138 3.855h29.919c1.94 0 3.137-2.16 2.138-3.855l-14.959-25.455z"></path>
<path fill="#fff" d="M15.277 24.727c0-0.287 0.056-0.57 0.166-0.835s0.27-0.505 0.473-0.708 0.443-0.363 0.708-0.473c0.265-0.11 0.549-0.166 0.835-0.166s0.57 0.056 0.835 0.166 0.505 0.27 0.708 0.473c0.203 0.203 0.363 0.443 0.473 0.708s0.166 0.548 0.166 0.835c0 0.579-0.23 1.134-0.639 1.543s-0.964 0.639-1.543 0.639c-0.579 0-1.134-0.23-1.543-0.639s-0.639-0.964-0.639-1.543zM15.491 11.625c-0.029-0.275 0-0.554 0.086-0.817s0.225-0.506 0.41-0.711 0.412-0.37 0.664-0.483c0.253-0.113 0.527-0.171 0.803-0.171s0.55 0.058 0.803 0.171c0.253 0.113 0.479 0.277 0.664 0.483s0.325 0.448 0.41 0.711c0.085 0.263 0.114 0.542 0.086 0.817l-0.764 7.652c-0.026 0.301-0.163 0.581-0.385 0.785s-0.513 0.317-0.815 0.317c-0.302 0-0.592-0.113-0.815-0.317s-0.36-0.484-0.385-0.785l-0.764-7.652z"></path>
</svg>
