<svg aria-hidden="true" style="position: absolute; width: 0; height: 0; overflow: hidden;" version="1.1" xmlns="http://www.w3.org/2000/svg" xmlns:xlink="http://www.w3.org/1999/xlink">
<defs>
<symbol id="icon-burger-menu-icon" viewBox="0 0 32 32">
<path stroke="#111111" stroke-linejoin="round" stroke-linecap="round" stroke-miterlimit="4" stroke-width="2.2857" d="M22.669 13.335h-18.668M28.003 8.001h-24.003M28.003 18.668h-24.003M22.669 24.003h-18.668"></path>
</symbol>
<symbol id="icon-logo-image" viewBox="0 0 32 32">
<path fill="#f6f6f6" style="fill: var(--color1, #f6f6f6)" d="M0 0l16.346 16.175 15.661 15.831v-32.007h-32.007z"></path>
<path fill="#f6f6f6" style="fill: var(--color1, #f6f6f6)" d="M4.458 4.229l11.945 11.832 11.26 11.488h-23.205v-23.32z"></path>
<path fill="#4f2ee8" style="fill: var(--color2, #4f2ee8)" d="M27.739 27.625l-11.947-11.832-11.258-11.488h23.205v23.32z"></path>
<path fill="#4f2ee8" style="fill: var(--color2, #4f2ee8)" d="M9.259 9.030l13.603 13.604h-13.603v-13.603z"></path>
<path fill="#f6f6f6" style="fill: var(--color1, #f6f6f6)" d="M9.259 9.030l13.603 13.604v-13.603h-13.603z"></path>
</symbol>
<symbol id="icon-logo-text" viewBox="0 0 176 32">
<path d="M22.178 8.533c0-4.732-3.497-7.407-9.546-7.407h-12.632v29.42h13.332c6.090 0 9.999-2.921 9.999-8.6 0-4.403-2.633-6.666-5.719-7.201v-0.082c2.428-0.823 4.567-2.51 4.567-6.131zM4.896 13.307v-8.024h7.859c2.921 0 4.526 1.44 4.526 4.032s-1.317 3.991-4.814 3.991h-7.571zM4.896 16.969h8.6c3.086 0 4.938 1.687 4.938 4.691 0 2.757-1.276 4.732-5.473 4.732h-8.065v-9.423zM35.894 31.164c-6.584 0-10.575-4.567-10.575-11.11s3.991-11.11 10.575-11.11c6.584 0 10.575 4.567 10.575 11.11s-3.991 11.11-10.575 11.11zM35.894 27.626c4.115 0 6.254-3.251 6.254-7.571 0-4.362-2.14-7.571-6.254-7.571s-6.254 3.209-6.254 7.571c0 4.32 2.14 7.571 6.254 7.571zM58.918 31.164c-6.584 0-10.575-4.567-10.575-11.11s3.991-11.11 10.575-11.11c6.584 0 10.575 4.567 10.575 11.11s-3.991 11.11-10.575 11.11zM58.918 27.626c4.115 0 6.254-3.251 6.254-7.571 0-4.362-2.14-7.571-6.254-7.571s-6.254 3.209-6.254 7.571c0 4.32 2.14 7.571 6.254 7.571zM72.478 1.127v29.42h4.32v-7.612l2.921-2.757 6.625 10.369h5.185l-8.847-13.208 7.983-7.818h-5.308l-8.559 8.435v-16.829h-4.32zM101.944 17.833c-3.045-0.7-5.39-0.864-5.39-3.004 0-1.481 1.399-2.469 3.991-2.469 3.374 0 4.197 1.687 4.485 3.333h4.197c-0.288-3.662-3.004-6.748-8.723-6.748-5.267 0-8.312 2.757-8.312 6.213 0 4.773 4.526 5.431 7.859 6.213 3.086 0.741 5.596 0.946 5.596 3.58 0 1.317-1.276 2.798-4.279 2.798-4.444 0-5.431-1.934-5.637-4.197h-4.197c0.206 4.444 3.127 7.612 9.916 7.612 5.102 0 8.559-2.51 8.559-6.542 0-5.020-4.197-5.884-8.065-6.789zM124.136 8.945c-3.539 0-5.719 1.646-6.83 3.292h-0.082v-11.11h-4.32v29.42h4.32v-12.797c0-3.127 2.263-5.143 5.431-5.143 3.004 0 4.197 1.81 4.197 4.65v13.291h4.362v-14.525c0-4.814-3.086-7.077-7.077-7.077zM144.463 27.626c-3.827 0-6.090-2.921-6.090-6.46h16.13c0-7.489-3.333-12.221-10.122-12.221-6.337 0-10.328 4.279-10.328 11.11 0 6.584 3.991 11.11 10.534 11.11 5.39 0 8.517-3.045 9.587-7.036h-4.32c-0.37 1.276-1.81 3.497-5.39 3.497zM144.381 12.36c3.498 0 5.802 2.345 5.802 5.596h-11.809c0-3.251 2.51-5.596 6.007-5.596zM157.548 1.127v29.42h4.362v-29.42h-4.362zM176.021 4.666v-3.539c-0.864-0.179-1.859-0.284-2.877-0.288h-0.003c-3.456 0-5.349 1.564-5.349 6.008v2.675h-3.004v3.539h3.004v17.488h4.362v-17.488h3.868v-3.539h-3.866v-2.304c0-2.387 1.070-2.675 3.868-2.551z"></path>
</symbol>
<symbol id="icon-vector-down" viewBox="0 0 32 32">
<path fill="#fff" style="fill: var(--color3, #fff)" d="M4.5 19.6l11.2-11.233c0.133-0.133 0.278-0.228 0.433-0.283s0.322-0.084 0.5-0.084c0.178 0 0.345 0.028 0.5 0.084s0.3 0.149 0.433 0.283l11.233 11.233c0.311 0.311 0.467 0.7 0.467 1.167s-0.167 0.867-0.5 1.2c-0.333 0.333-0.722 0.5-1.167 0.5s-0.833-0.167-1.167-0.5l-9.8-9.8-9.8 9.8c-0.311 0.311-0.694 0.467-1.149 0.467s-0.851-0.167-1.184-0.5-0.5-0.722-0.5-1.167c0-0.445 0.167-0.833 0.5-1.167z"></path>
</symbol>
<symbol id="icon-shopping-bag" viewBox="0 0 32 32">
<path fill="#fff" style="fill: var(--color3, #fff)" d="M25.342 9.336h-4.001v-1.333c0-2.947-2.389-5.336-5.336-5.336s-5.336 2.389-5.336 5.336v0 1.333h-4.001c-0.736 0-1.333 0.597-1.333 1.333 0 0.001 0 0.001 0 0.002v-0 14.671c0 2.21 1.792 4.001 4.001 4.001v0h13.338c2.21 0 4.001-1.792 4.001-4.001v0-14.671c0-0.737-0.597-1.334-1.333-1.335h-0zM13.338 8.003c-0.001-0.019-0.001-0.042-0.001-0.065 0-1.474 1.195-2.668 2.668-2.668s2.668 1.195 2.668 2.668c0 0.023-0 0.046-0.001 0.069l0-0.003v1.333h-5.335v-1.333zM24.009 25.342c0 0 0 0.001 0 0.002 0 0.736-0.597 1.333-1.333 1.333-0.001 0-0.001 0-0.002 0h-13.338c-0.736 0-1.333-0.597-1.333-1.333 0-0.001 0-0.001 0-0.002v0-13.338h2.667v1.333c0 0.737 0.597 1.334 1.334 1.334s1.334-0.597 1.334-1.334v0-1.333h5.335v1.333c0 0.737 0.597 1.334 1.334 1.334s1.334-0.597 1.334-1.334v0-1.333h2.668v13.338z"></path>
</symbol>
<symbol id="icon-trash-bin" viewBox="0 0 32 32">
<path fill="none" stroke="#fff" style="stroke: var(--color3, #fff)" stroke-linejoin="round" stroke-linecap="butt" stroke-miterlimit="4" stroke-width="2.9091" d="M12 4h8M4 8h24M25.333 8l-0.935 14.026c-0.14 2.104-0.21 3.156-0.665 3.954-0.4 0.702-1.004 1.267-1.731 1.619-0.826 0.4-1.881 0.4-3.99 0.4h-4.025c-2.109 0-3.164 0-3.99-0.4-0.728-0.352-1.331-0.917-1.731-1.619-0.455-0.798-0.525-1.85-0.665-3.954l-0.935-14.026M13.333 14v6.667M18.667 14v6.667"></path>
</symbol>
<symbol id="icon-user-icon" viewBox="0 0 32 32">
<path fill="#4f2ee8" style="fill: var(--color2, #4f2ee8)" d="M5.335 29.339c0-5.892 4.776-10.668 10.668-10.668s10.668 4.776 10.668 10.668v0h-21.336zM16.003 17.337c-0 0-0.001 0-0.002 0-4.418 0-8-3.582-8-8 0-0.001 0-0.001 0-0.002v0c0-0.001 0-0.001 0-0.002 0-4.418 3.582-8 8-8 0.001 0 0.001 0 0.002 0h-0c0 0 0.001 0 0.002 0 4.418 0 8 3.582 8 8 0 0.001 0 0.001 0 0.002v-0c0 0.001 0 0.001 0 0.002 0 4.418-3.582 8-8 8-0.001 0-0.001 0-0.002 0h0z"></path>
</symbol>
<symbol id="icon-x-close" viewBox="0 0 32 32">
<path stroke="#111111" stroke-linejoin="round" stroke-linecap="butt" stroke-miterlimit="4" stroke-width="3.4286" d="M24 8l-16 16M8 8l16 16"></path>
</symbol>
</defs>
</svg>
